<svg t="1787734743318" class="icon" viewBox="0 0 1024 1024" version="1.1" xmlns="http://www.w3.org/2000/svg" p-id="31812" width="200" height="200"><path d="M203.2 691.2c-71.4 0-129.4 58-129.4 129.4s58 129.4 129.4 129.4 129.4-58 129.4-129.4c0.2-71.4-58-129.4-129.4-129.4z m0 198.8c-38.2 0-69.4-31.2-69.4-69.4s31.2-69.4 69.4-69.4 69.4 31.2 69.4 69.4c0.2 38.2-31 69.4-69.4 69.4z m337.8-678.8V102c0-16.6-13.4-30-30-30s-30 13.4-30 30v109.2c-57 13.6-99.4 64.8-99.4 126 0 71.4 58 129.4 129.4 129.4s129.4-58 129.4-129.4c0-61.2-42.4-112.4-99.4-126z m-30 195.4c-38.2 0-69.4-31.2-69.4-69.4s31.2-69.4 69.4-69.4 69.4 31.2 69.4 69.4-31.2 69.4-69.4 69.4zM948.2 596c0-71.4-58-129.4-129.4-129.4s-129.4 58-129.4 129.4c0 61 42.4 112.4 99.4 126v198c0 16.6 13.4 30 30 30s30-13.4 30-30v-198.2c56.8-13.4 99.4-64.8 99.4-125.8z m-129.4 69.4c-38.2 0-69.4-31.2-69.4-69.4s31.2-69.4 69.4-69.4 69.4 31.2 69.4 69.4-31.2 69.4-69.4 69.4zM173.2 632.4V102c0-16.6 13.4-30 30-30s30 13.4 30 30v530.4c0 16.6-13.4 30-30 30s-30-13.6-30-30zM542 536v384c0 16.6-13.4 30-30 30s-30-13.4-30-30V536c0-16.6 13.4-30 30-30s30 13.4 30 30z m246.8-139V102c0-16.6 13.4-30 30-30s30 13.4 30 30v295.2c0 16.6-13.4 30-30 30s-30-13.6-30-30.2z" p-id="31813"></path></svg>