<?xml version="1.0" standalone="no"?><!DOCTYPE svg PUBLIC "-//W3C//DTD SVG 1.1//EN" "http://www.w3.org/Graphics/SVG/1.1/DTD/svg11.dtd"><svg t="1742652175773" class="icon" viewBox="0 0 1024 1024" version="1.1" xmlns="http://www.w3.org/2000/svg" p-id="913" xmlns:xlink="http://www.w3.org/1999/xlink" width="200" height="200"><path d="M564.80426667 678.44096h-105.60853334l-32.28899555 71.02805333a20.80540445 20.80540445 0 1 1-37.86524445-17.22595555L493.06737778 503.38702222a20.80540445 20.80540445 0 0 1 37.86524444 0l104.02588445 228.85603556a20.80540445 20.80540445 0 1 1-37.86524445 17.22595555l-32.29013333-71.02805333z m-18.93262222-41.61080889L512 562.26474667l-33.87164445 74.56540444h67.7432889zM303.94823111 75.09333333H844.87964445a20.80540445 20.80540445 0 1 1 0 41.60967112H303.94936889a104.02588445 104.02588445 0 0 0 0 208.05176888H844.87964445a20.80540445 20.80540445 0 0 1 20.80540444 20.80426667v582.54222222A20.80540445 20.80540445 0 0 1 844.88078222 948.90666667H303.94936889a145.63555555 145.63555555 0 0 1-145.63555556-145.63555556V220.72888889a145.63555555 145.63555555 0 0 1 145.63555556-145.63555556z m-104.02588444 247.58044445V803.27111111a104.02588445 104.02588445 0 0 0 104.02588444 104.02588444h520.12714667V366.36444445H303.94936889a145.21912889 145.21912889 0 0 1-104.02588444-43.69066667z m104.02588444-81.13948445a20.80540445 20.80540445 0 0 1 0-41.61080888H803.27111111a20.80540445 20.80540445 0 1 1 0 41.61080888H303.94936889z" p-id="914"></path></svg>