<?xml version="1.0" standalone="no"?><!DOCTYPE svg PUBLIC "-//W3C//DTD SVG 1.1//EN" "http://www.w3.org/Graphics/SVG/1.1/DTD/svg11.dtd"><svg t="1742651849502" class="icon" viewBox="0 0 1024 1024" version="1.1" xmlns="http://www.w3.org/2000/svg" p-id="818" xmlns:xlink="http://www.w3.org/1999/xlink" width="200" height="200"><path d="M462.47614388 550.73258509a20.71261235 20.71261235 0 0 1 20.71261235 20.71261234v323.2824535a20.71261235 20.71261235 0 0 1-20.71261235 20.71261234H139.17297778a20.71261235 20.71261235 0 0 1-20.71261235-20.71261234V571.44519743a20.71261235 20.71261235 0 0 1 20.71261235-20.71261234h323.3031661z m417.85624145 0a20.71261235 20.71261235 0 0 1 20.71261236 20.71261234v323.2824535a20.71261235 20.71261235 0 0 1-20.71261236 20.71261234h-323.3238787a20.71261235 20.71261235 0 0 1-20.71261235-20.71261234V571.44519743a20.71261235 20.71261235 0 0 1 20.71261235-20.71261234h323.3238787z m-459.28146613 62.13783704H180.59820247v240.4320041h240.45271673V612.87042213z m417.85624145 0h-240.47342933v240.4320041h240.47342933V612.87042213zM724.98779275 118.46036543a196.76981728 196.76981728 0 1 1 0 393.53963457 196.76981728 196.76981728 0 0 1 0-393.53963457z m-262.51164887 14.4159782a20.71261235 20.71261235 0 0 1 20.71261235 20.71261234v323.28245349a20.71261235 20.71261235 0 0 1-20.71261235 20.71261235H139.17297778a20.71261235 20.71261235 0 0 1-20.71261235-20.71261235V153.58895597a20.71261235 20.71261235 0 0 1 20.71261235-20.71261234h323.3031661zM724.98779275 180.59820247a134.63198025 134.63198025 0 1 0 0 269.2639605 134.63198025 134.63198025 0 0 0 0-269.2639605z m-303.93687355 14.41597819H180.59820247v240.43200411h240.45271673V195.01418066z" p-id="819"></path></svg>