<?xml version="1.0" standalone="no"?><!DOCTYPE svg PUBLIC "-//W3C//DTD SVG 1.1//EN" "http://www.w3.org/Graphics/SVG/1.1/DTD/svg11.dtd"><svg t="1742651983026" class="icon" viewBox="0 0 1024 1024" version="1.1" xmlns="http://www.w3.org/2000/svg" p-id="883" xmlns:xlink="http://www.w3.org/1999/xlink" width="200" height="200"><path d="M186.56818174 387.18636348a30.68181826 30.68181826 0 0 1 30.68181826 30.68181826v193.37727305a30.68181826 30.68181826 0 0 1-61.36363652 0V417.86818174a30.68181826 30.68181826 0 0 1 30.68181826-30.68181826zM807.15909131 102.90909131H267.28181826a111.55909131 111.55909131 0 0 0-111.39545479 111.3954539v58.86818174a30.68181826 30.68181826 0 0 0 61.36363653 0V214.30454521c0-27.57272695 22.45909131-50.03181826 50.03181826-50.03181826h539.87727305c27.57272695 0 50.03181826 22.45909131 50.03181738 50.03181826v595.39090958c0 27.57272695-22.45909131 50.03181826-50.03181738 50.03181826H267.28181826a50.11363653 50.11363653 0 0 1-50.03181826-50.03181826v-63.94090958a30.27272695 30.27272695 0 0 0-26.71363653-29.86363652h73.39090958a30.68181826 30.68181826 0 0 0 0-61.36363564H136.12727305a30.68181826 30.68181826 0 0 0 0 61.36363564h46.51363564a30.35454521 30.35454521 0 0 0-26.71363564 29.86363652v63.94090958A111.47727305 111.47727305 0 0 0 267.28181826 921.09090869h539.87727305a111.55909131 111.55909131 0 0 0 111.3954539-111.3954539V214.30454521A111.55909131 111.55909131 0 0 0 807.15909131 102.90909131zM398.02727305 638.28636348l77.1954539-225.12272695-36.57272695-99.08181827a30.68181826 30.68181826 0 0 1 28.75909131-41.27727305h156.3954539a30.64090869 30.64090869 0 0 1 28.75909132 41.27727305l-36.61363653 99.08181827 77.19545479 225.12272695a30.68181826 30.68181826 0 0 1-12.15 35.59090957l-122.72727305 80.7954539a30.76363653 30.76363653 0 0 1-34.56818174-0.61363564L409.31818174 673.26363652a30.68181826 30.68181826 0 0 1-11.29090869-34.97727305z m113.44090869-304.15909043l17.71363652 47.9454539h32.89090869l17.7545461-47.9454539h-68.35909131z m-47.94545479 302.31818174l78.5045461 55.43181826 85.37727216-56.20909131-65.90454521-192.19090869h-31.78636347l-66.19090958 192.96818174zM136.12727305 381.25454521h127.84090869a30.68181826 30.68181826 0 0 0 0-61.36363652H136.12727305a30.68181826 30.68181826 0 0 0 0 61.36363652z" p-id="884"></path></svg>