<?xml version="1.0" standalone="no"?><!DOCTYPE svg PUBLIC "-//W3C//DTD SVG 1.1//EN" "http://www.w3.org/Graphics/SVG/1.1/DTD/svg11.dtd"><svg t="1742652026653" class="icon" viewBox="0 0 1024 1024" version="1.1" xmlns="http://www.w3.org/2000/svg" p-id="1029" xmlns:xlink="http://www.w3.org/1999/xlink" width="200" height="200"><path d="M113.23577145 933.53763513A23.19384787 23.19384787 0 0 1 90.12626562 910.47029951V834.43665073a363.1734808 363.1734808 0 0 1 229.1973838-338.54583225l23.99508901-9.6570747-20.36841504-15.98266929A211.94959543 211.94959543 0 0 1 241.51883343 302.96017861C241.51883343 185.64148062 336.74012022 90.125 453.80579373 90.125s212.32913049 95.51648062 212.32913132 212.83517861a212.2869603 212.2869603 0 0 1-81.43148996 167.3330669l-13.74762662 10.88002277c-20.36841503 18.25988379-60.30400314 30.65804929-112.30039187 34.74860037h-2.02419086l-2.65674957-0.08434121c-8.09676096 0-16.44654638 0.33736487-25.04935547 1.05426562l-9.10885639 0.71690076-4.04838006 0.59038934c-159.48932959 19.18763718-279.50694736 155.18792505-279.50694736 316.27973776v52.88197192h348.87763669l1.93984881 3.92186949c5.27132895 10.66917014 11.17521743 21.21182803 17.71166547 31.16409658l7.16900675 11.00653501H113.23577145V933.53763513zM453.80579373 136.21750024c-91.59461197 0-166.06794782 74.81070071-166.06794781 166.74267838s74.55767706 166.78484857 166.06794781 166.78484858c91.59461197 0 166.15228903-74.81070071 166.15228903-166.78484858-0.04217102-91.93197683-74.55767706-166.74267755-166.15228903-166.74267838z" p-id="1030"></path><path d="M454.90223037 90.125C338.46911639 90.125 243.71170673 182.39434253 243.71170673 295.79117105c0 63.25594739 29.60378366 122.16832004 81.05195406 161.64003186l26.23013251 20.07322037-30.95324312 12.06080063C180.3292471 543.96533857 90.12626562 673.4291784 90.12626562 819.42390503v74.81070154c0 10.28963425 8.6871503 18.72376089 19.35631962 18.72376007h396.82564535l-3.12062668-4.55442819a283.04928012 283.04928012 0 0 1-18.17554258-31.20626761l-0.84341299-1.68682517H128.75456445v-56.08694064c0-160.83878989 123.3490979-296.45954105 286.88680756-315.52066599l4.21706332-0.59038934 9.40405105-0.80124197a352.88384656 352.88384656 0 0 1 28.59168824-0.96992441h1.56031293c52.03855975-4.00620987 91.59461197-15.81398684 111.58349195-33.31479886l14.12716167-10.79568155c51.53251162-39.47171099 81.05195407-98.38408365 81.05195407-161.72437307C666.13492505 182.39434253 571.37751538 90.125 454.90223037 90.125z m0 373.96916235c-95.17911575 0-172.52005463-75.48543045-172.52005462-168.26082028C282.38217575 202.93144 359.80745584 127.44600873 454.90223037 127.44600873c95.22128678 0 172.64656604 75.48543045 172.64656605 168.3029913-0.08434121 92.81756085-77.50962131 168.30299131-172.64656604 168.3029913z" p-id="1031"></path><path d="M774.04957117 933.53763513a33.60999353 33.60999353 0 0 1-23.99508902-9.91009836c-6.62078924-6.91598392-27.49525159-24.96501426-43.77311637-24.96501425-16.0248403 0-36.85713245 17.71166546-43.47792086 24.50113715a33.82084699 33.82084699 0 0 1-35.54984235 7.50637244l-0.25302448-0.08434122-55.87608636-29.94114853-0.21085345-0.12651224c-11.9764594-8.39195562-16.53088761-23.3625303-10.88002277-35.59201337 0-0.08434121 4.63876941-10.54265789 4.6387694-19.69368448 0-28.50734702-24.16377227-51.70119489-53.80972612-51.70119488h-1.89767863c-11.55475332 0-20.45275626-8.85583273-23.27818909-22.98299442a258.50597278 258.50597278 0 0 1-4.72311062-42.59233768c0-17.8803479 4.21706332-40.14644155 4.72311062-42.59233849 2.82543201-14.2115029 11.55475332-23.06733562 22.94082422-23.06733564h2.2350435c29.64595386 0 53.80972613-23.19384787 53.80972612-51.70119406 0-8.39195562-3.92186865-17.79600668-4.6387694-19.69368529a28.33866458 28.33866458 0 0 1 10.2052922-35.12813627l0.96992523-0.63255954 57.77376499-30.48936686 0.21085346-0.04217019a34.36906448 34.36906448 0 0 1 36.35108431 7.00032513c8.2232732 8.05459075 27.83261728 23.44687151 42.84536215 23.4468707 18.93461352 0 42.33931403-22.77214096 42.59233768-23.0251646a33.94735839 33.94735839 0 0 1 35.33898972-7.12683656l0.25302365 0.08434121 56.88818262 30.23634239 0.16868243 0.16868326c11.93428839 8.34978543 16.61522882 23.27818909 10.96436398 35.50767133a56.42430551 56.42430551 0 0 0-4.72311062 19.69368529c0 28.46517682 24.16377227 51.70119489 53.76755511 51.70119406h1.93984965c11.5125823 0 20.41058606 8.85583273 23.19384704 22.98299442 0.84341299 4.04838089 4.76528165 25.30237912 4.76528165 42.5923385 0 17.28995938-3.87969846 38.54395762-4.72311062 42.59233767-2.82543201 14.2115029-11.63909454 23.06733562-22.8986532 23.06733564h-2.27721452c-29.60378366 0-53.76755512 23.19384787-53.76755511 51.70119488 0 7.88590833 3.20496789 16.36220517 4.63876941 19.60934327a28.33866458 28.33866458 0 0 1-10.20529303 35.12813626l-1.01209542 0.63255953-56.08693982 29.81463712-0.21085347 0.08434121a27.74827607 27.74827607 0 0 1-12.94638381 3.03628547z m-67.76820539-74.51550686c14.63320898 0 30.32068442 5.90388849 46.68288959 17.62732425 5.44001138 3.96403967 10.62699912 8.2232732 15.51879217 12.77770138l2.48806797 2.3193847 45.16474604-24.03726003-1.13860685-3.58450379a76.5396969 76.5396969 0 0 1-4.51225717-24.41679511c0-40.35729419 31.41712106-74.81070071 72.95519229-79.99768844l3.45799236-0.42170691 0.46387629-3.2471381c1.26511908-7.75939609 2.74109079-18.93461352 2.74109161-27.91695849 0-8.94017395-1.47597171-20.11539139-2.74109161-27.95912869l-0.46387629-3.24713892-3.41582134-0.42170608c-41.58024307-5.18698774-72.95519312-39.64039343-72.95519311-79.99768845 0-9.40405105 2.36155573-18.42856622 4.47008696-24.41679593l1.13860686-3.50016257-44.70086976-23.86857761-2.44589612 2.2350435c-3.24713891 2.95194425-8.56063807 7.33769001-15.26576853 11.89211819-15.94049908 10.79568155-31.16409658 16.27786396-45.16474684 16.27786395-14.2115029 0-29.51944245-5.56652363-45.58645295-16.61522882a142.83192975 142.83192975 0 0 1-15.43445096-12.22948306l-2.44589695-2.19287328-46.38769491 24.45896694 1.13860685 3.54233276c2.10853125 5.90388849 4.512258 15.01274487 4.51225799 24.33245472 0 40.35729419-31.37495004 74.85287173-72.95519311 80.03985864l-3.45799155 0.37953589-0.46387711 3.2893091c-1.26511908 7.71722588-2.74109079 18.80810212-2.74109079 27.91695851 0 9.02451517 1.47597171 20.07322037 2.74109079 27.91695849l0.46387711 3.24713809 3.41582053 0.42170691c41.62241328 5.18698774 72.95519312 39.64039343 72.95519311 79.99768762 0 9.48839227-2.36155573 18.55507763-4.47008697 24.50113715l-1.13860685 3.45799237 43.43575068 23.36252948 2.48806713-2.31938471a151.39256782 151.39256782 0 0 1 15.35010974-12.44033651c16.36220517-11.3860709 31.88099735-17.16344714 46.3033537-17.16344714z" p-id="1032"></path><path d="M929.02664276 685.27912558c-2.36155573-12.48250672-9.44622126-20.24190363-18.63941885-20.2419028h-1.8555076a56.63515815 56.63515815 0 0 1-56.38213531-56.80384141c0-10.24746323 4.84962287-21.5491929 4.93396407-21.71787532 4.76528165-10.75351135 0.84341299-23.91074781-9.27753881-31.33277903l-54.90616278-30.61587909a28.21215234 28.21215234 0 0 0-29.94114853 6.3255954c-0.25302366 0.25302366-24.03726004 24.75416079-44.27916284 24.75416079-20.24190363 0-44.27916367-24.88067303-44.53218733-25.13369668a28.4230058 28.4230058 0 0 0-30.91107293-6.19908316l-55.87608718 30.95324395-0.71690077 0.46387711a25.76625622 25.76625622 0 0 0-8.56063805 30.95324314c1.13860684 2.74109079 4.84962287 12.60901895 4.84962203 21.63353412 0 31.33277903-25.30237912 56.84601159-56.33996346 56.8460116h-2.19287329c-8.98234497 0-16.0248403 7.71722588-18.34422419 20.1575624-0.12651223 1.01209543-4.512258 24.37462491-4.51225799 42.6766789 0 18.00686014 4.04838089 40.18861176 4.51225799 42.71884991 2.36155573 12.48250672 9.44622126 20.19973261 18.68158987 20.1997326h1.85550761c31.07975537 0 56.3399643 25.47106155 56.33996346 56.80384141 0 10.45831668-4.93396408 21.76004636-4.93396326 21.76004553-4.76528165 10.75351135-0.84341299 23.91074781 9.27753882 31.33277985l53.85189633 30.27851339a27.66393402 27.66393402 0 0 0 30.02548975-6.74730066c0.25302366-0.25302366 24.7119906-26.31447456 45.2912591-26.31447455 20.91663336 0 45.29125827 26.56749819 45.54428191 26.77835084 4.84962287 5.39784119 12.65118915 8.7293205 20.32624485 8.72932131 3.79535724 0 7.04249533-0.71690076 11.21738763-2.61457938l54.27360325-30.27851339 0.71690075-0.46387711a25.63974399 25.63974399 0 0 0 8.47629685-30.95324396 62.96075354 62.96075354 0 0 1-4.84962287-21.63353411c0-31.37495004 25.30237912-56.84601159 56.3399643-56.8460116h2.19287246c8.98234497 0 16.0248403-7.71722588 18.34422501-20.15756159 0.71690076-4.09055108 4.512258-25.30237912 4.512258-42.76102093 0-17.16344714-3.79535724-38.5017866-4.512258-42.59233767z m-32.5557279 71.77441526l-0.96992441 6.32559539-6.32559457 0.84341218c-38.45961639 5.0604755-67.51518173 38.41744537-67.51518174 77.63613272 0 9.06668618 2.23504348 17.83817688 4.09055191 23.61555394l2.27721369 6.7473015-49.5083216 27.62176381-4.51225717-4.47008698a147.17550449 147.17550449 0 0 0-14.59103879-12.65118996c-15.18142732-11.3860709-29.73029507-17.16344714-42.97187356-17.16344714-13.15723728 0-27.53742261 5.69303503-42.5923385 16.86825329-5.14481671 3.79535724-9.99443958 7.92807852-14.54886777 12.35599448l-4.512258 4.51225799-47.82149642-26.98920428 2.19287329-6.74730148c1.85550759-5.77737625 4.21706332-14.54886777 4.21706331-23.65772415 0-39.17651716-29.01339431-72.5334862-67.47301071-77.67830374l-6.3255954-0.84341218-0.96992441-6.32559539a213.34122593 213.34122593 0 0 1-2.74109077-29.09773555c0-9.57273349 1.43380151-21.0853158 2.74109077-29.09773635l0.96992441-6.32559457 6.3255954-0.84341217c38.37527517-5.0604755 67.47301072-38.37527517 67.47301071-77.63613355 0-9.06668618-2.27721451-17.83817688-4.1327221-23.61555395l-2.2772145-6.74730066 50.60475823-28.04346992 4.55442819 4.34357474c4.55442819 4.34357473 9.44622126 8.39195562 14.59103879 12.06080063 14.97057468 10.71134033 29.01339431 16.10918152 42.00194916 16.10918152 12.81987241 0 26.77835083-5.31349997 41.58024307-15.89832806a126.09018869 126.09018869 0 0 0 14.42235636-11.80777698l4.55442819-4.21706332 48.91793224 27.36874017-2.19287246 6.74730065a80.41939453 80.41939453 0 0 0-4.1327221 23.69989518c0 39.13434613 29.01339431 72.5334862 67.4730107 77.63613355l6.40993662 0.84341217 0.96992441 6.32559457c1.22294806 8.05459075 2.74109079 19.69368531 2.74109079 29.13990655a260.02411551 260.02411551 0 0 1-2.95194425 29.09773637z" p-id="1033"></path><path d="M707.25129102 810.10419601a82.40141437 82.40141437 0 0 1-82.27490295-82.27490295c0-45.37559948 36.94147366-82.27490212 82.27490295-82.27490212 45.37559948 0 82.27490212 36.89930264 82.27490212 82.27490212a82.35924417 82.35924417 0 0 1-82.23273193 82.27490295z m0-125.24677651c-23.69989517 0-43.01404459 19.27197839-43.01404459 42.97187356 0 23.69989517 19.31414942 43.01404459 43.01404459 43.01404459s43.01404459-19.31414942 43.01404376-43.01404459-19.31414942-43.01404459-43.01404376-43.01404376z" p-id="1034"></path><path d="M717.54092443 645.51221992a72.02743891 72.02743891 0 1 0 71.98526871 71.9852687 72.11178012 72.11178012 0 0 0-71.98526871-71.94309768z m0 115.67404302a43.56226291 43.56226291 0 1 1 0.04217103-87.16669602 43.56226291 43.56226291 0 0 1-0.04217103 87.16669602z" p-id="1035"></path></svg>