<svg t="1787733916761" class="icon" viewBox="0 0 1024 1024" version="1.1" xmlns="http://www.w3.org/2000/svg" p-id="22029" width="200" height="200"><path d="M1012.055988 780.74028a38.22084 38.22084 0 0 1-54.032438-1.478783 289.898245 289.898245 0 0 0-213.456565-94.47145h-0.398134c-80.707398 0-158.115974 34.239502-212.31904 93.959564l-7.848922 8.588314-0.91002-1.763164a39.58587 39.58587 0 0 1-21.442346 5.175739 37.708954 37.708954 0 0 1-26.39058-12.683404 38.107087 38.107087 0 0 1-2.673184-47.662297l-0.113753-0.113753 1.308154-1.478782a42.372806 42.372806 0 0 1 3.412575-3.753833l0.45501-0.511886a365.657409 365.657409 0 0 1 266.92024-116.198178h0.45501a364.463008 364.463008 0 0 1 268.74028 118.586981 38.107087 38.107087 0 0 1-1.706287 53.804932z m-492.093313-160.220396c0.170629 1.706287 0.966896 3.128194 0.966896 4.834482 0 24.854921-19.394801 44.989114-43.282826 44.989113h-44.534103c-143.896912 0-331.929793 85.655632-333.749834 86.565652-5.630749 2.331926-12.171517 12.057765-12.171517 17.972895v157.945346l433.340146 1.080648c23.944901 0 43.282826 20.134192 43.282826 44.989114 0 24.854921-19.394801 44.989114-43.282826 44.989114H84.745612c-36.798934 0-69.559653-24.911797-81.731171-62.108865a46.354144 46.354144 0 0 1-2.331926-14.503444V774.882026c0-41.917796 27.926239-85.314375 65.009553-100.898467a1285.744501 1285.744501 0 0 1 222.613642-74.962897A250.53988 250.53988 0 0 1 185.132193 394.948678V247.639191c0-136.559876 106.415463-247.639191 237.401466-247.639191 130.986003 0 237.515219 111.079316 237.515219 247.639191v147.366363c0 100.272828-57.615641 186.667852-140.086203 225.51433z m53.634303-372.880693c0-86.963786-67.79649-157.604088-151.120195-157.604088-83.26683 0-150.949567 70.640302-150.949567 157.604088v147.309487c0 86.963786 67.682737 157.604088 150.949567 157.604088 83.323706 0 151.120196-70.697178 151.120195-157.604088V247.639191z m-22.124861 604.139525a37.481449 37.481449 0 0 1 13.365919-25.93557 239.960898 239.960898 0 0 1 171.936903-80.138636v-0.227505H744.965119a241.724061 241.724061 0 0 1 177.908909 78.318596c7.109531 6.256387 11.602755 15.697845 12.114641 25.878694a38.391469 38.391469 0 0 1-61.369473 32.419462h-0.511887l-2.502555-2.445679c-34.865141-36.457676-80.707398-57.388136-125.86714-57.388136h-0.511886c-48.68607 0-94.64208 21.328594-126.094646 58.525661l-5.630749 6.597645-1.080648-1.023772a37.993335 37.993335 0 0 1-21.669852 6.711397h-0.284381a38.107087 38.107087 0 0 1-37.993335-41.292157z m192.981116 52.838036a57.445012 57.445012 0 0 1 57.388136 57.33126l-0.398134 6.711397a57.445012 57.445012 0 0 1-114.378138-6.711397l0.398133-6.654522a57.445012 57.445012 0 0 1 56.990003-50.676738z"  p-id="22030"></path></svg>